REM DIRINDEX 1\2,1\3,1\4,1\5\6,1\5\7,1\8
REM DIRNAME folder01,folder02,folder03,folder04,folder05,folder06,folder07,folder08
TITLE ""
FILE "129 Åy129ÅzUnit7 (1465 raid_1476 diameter).mp3" MP3
  TRACK 01 AUDIO
    TITLE "0:"
    INDEX 01 00:00:00
  TRACK 02 AUDIO
    TITLE "2:cjc115_5010"
    INDEX 01 00:00:07
  TRACK 03 AUDIO
    TITLE "0:"
    INDEX 01 00:01:13
  TRACK 04 AUDIO
    TITLE "3:cjc115_5011"
    INDEX 01 00:01:21
  TRACK 05 AUDIO
    TITLE "0:"
    INDEX 01 00:02:67
  TRACK 06 AUDIO
    TITLE "4:cjc115_5012"
    INDEX 01 00:03:15
  TRACK 07 AUDIO
    TITLE "0:"
    INDEX 01 00:06:71
  TRACK 08 AUDIO
    TITLE "2:cjc115_5013"
    INDEX 01 00:08:11
  TRACK 09 AUDIO
    TITLE "0:"
    INDEX 01 00:09:16
  TRACK 10 AUDIO
    TITLE "3:cjc115_5014"
    INDEX 01 00:09:26
  TRACK 11 AUDIO
    TITLE "0:"
    INDEX 01 00:10:53
  TRACK 12 AUDIO
    TITLE "4:cjc115_5015"
    INDEX 01 00:10:65
  TRACK 13 AUDIO
    TITLE "0:"
    INDEX 01 00:14:27
  TRACK 14 AUDIO
    TITLE "2:cjc115_5016"
    INDEX 01 00:15:36
  TRACK 15 AUDIO
    TITLE "0:"
    INDEX 01 00:16:48
  TRACK 16 AUDIO
    TITLE "3:cjc115_5017"
    INDEX 01 00:16:55
  TRACK 17 AUDIO
    TITLE "0:"
    INDEX 01 00:18:35
  TRACK 18 AUDIO
    TITLE "4:cjc115_5018"
    INDEX 01 00:18:39
  TRACK 19 AUDIO
    TITLE "0:"
    INDEX 01 00:21:60
  TRACK 20 AUDIO
    TITLE "2:cjc115_5019"
    INDEX 01 00:22:68
  TRACK 21 AUDIO
    TITLE "0:"
    INDEX 01 00:24:24
  TRACK 22 AUDIO
    TITLE "3:cjc115_5020"
    INDEX 01 00:24:33
  TRACK 23 AUDIO
    TITLE "0:"
    INDEX 01 00:27:02
  TRACK 24 AUDIO
    TITLE "4:cjc115_5021"
    INDEX 01 00:27:12
  TRACK 25 AUDIO
    TITLE "0:"
    INDEX 01 00:29:66
  TRACK 26 AUDIO
    TITLE "2:cjc115_5022"
    INDEX 01 00:31:00
  TRACK 27 AUDIO
    TITLE "0:"
    INDEX 01 00:32:11
  TRACK 28 AUDIO
    TITLE "3:cjc115_5023"
    INDEX 01 00:32:21
  TRACK 29 AUDIO
    TITLE "0:"
    INDEX 01 00:34:65
  TRACK 30 AUDIO
    TITLE "4:cjc115_5024"
    INDEX 01 00:34:67
  TRACK 31 AUDIO
    TITLE "0:"
    INDEX 01 00:39:39
  TRACK 32 AUDIO
    TITLE "2:cjc115_5025"
    INDEX 01 00:40:48
  TRACK 33 AUDIO
    TITLE "0:"
    INDEX 01 00:41:67
  TRACK 34 AUDIO
    TITLE "3:cjc115_5026"
    INDEX 01 00:42:02
  TRACK 35 AUDIO
    TITLE "0:"
    INDEX 01 00:44:60
  TRACK 36 AUDIO
    TITLE "4:cjc115_5027"
    INDEX 01 00:44:69
  TRACK 37 AUDIO
    TITLE "0:"
    INDEX 01 00:48:16
  TRACK 38 AUDIO
    TITLE "2:cjc115_5028"
    INDEX 01 00:49:25
  TRACK 39 AUDIO
    TITLE "0:"
    INDEX 01 00:50:37
  TRACK 40 AUDIO
    TITLE "3:cjc115_5029"
    INDEX 01 00:50:46
  TRACK 41 AUDIO
    TITLE "0:"
    INDEX 01 00:53:00
  TRACK 42 AUDIO
    TITLE "4:cjc115_5030"
    INDEX 01 00:53:06
  TRACK 43 AUDIO
    TITLE "0:"
    INDEX 01 00:56:37
  TRACK 44 AUDIO
    TITLE "2:cjc115_5031"
    INDEX 01 00:57:46
  TRACK 45 AUDIO
    TITLE "0:"
    INDEX 01 00:58:62
  TRACK 46 AUDIO
    TITLE "3:cjc115_5032"
    INDEX 01 00:58:71
  TRACK 47 AUDIO
    TITLE "0:"
    INDEX 01 01:00:23
  TRACK 48 AUDIO
    TITLE "4:cjc115_5033"
    INDEX 01 01:00:25
  TRACK 49 AUDIO
    TITLE "0:"
    INDEX 01 01:03:35
  TRACK 50 AUDIO
    TITLE "2:cjc115_5034"
    INDEX 01 01:04:43
  TRACK 51 AUDIO
    TITLE "0:"
    INDEX 01 01:05:48
  TRACK 52 AUDIO
    TITLE "3:cjc115_5035"
    INDEX 01 01:05:60
  TRACK 53 AUDIO
    TITLE "0:"
    INDEX 01 01:07:25
  TRACK 54 AUDIO
    TITLE "4:cjc115_5036"
    INDEX 01 01:07:27
  TRACK 55 AUDIO
    TITLE "0:"
    INDEX 01 01:10:06
  TRACK 56 AUDIO
    TITLE "2:cjc115_5037"
    INDEX 01 01:11:15
  TRACK 57 AUDIO
    TITLE "0:"
    INDEX 01 01:12:34
  TRACK 58 AUDIO
    TITLE "3:cjc115_5038"
    INDEX 01 01:12:44
  TRACK 59 AUDIO
    TITLE "0:"
    INDEX 01 01:15:13
  TRACK 60 AUDIO
    TITLE "4:cjc115_5039"
    INDEX 01 01:15:21
  TRACK 61 AUDIO
    TITLE "0:"
    INDEX 01 01:18:41
  TRACK 62 AUDIO
    TITLE "2:cjc115_5040"
    INDEX 01 01:19:52
  TRACK 63 AUDIO
    TITLE "0:"
    INDEX 01 01:20:71
  TRACK 64 AUDIO
    TITLE "3:cjc115_5041"
    INDEX 01 01:21:06
  TRACK 65 AUDIO
    TITLE "0:"
    INDEX 01 01:23:26
  TRACK 66 AUDIO
    TITLE "4:cjc115_5042"
    INDEX 01 01:23:28
  TRACK 67 AUDIO
    TITLE "0:"
    INDEX 01 01:27:04
  TRACK 68 AUDIO
    TITLE "2:cjc115_5043"
    INDEX 01 01:28:14
  TRACK 69 AUDIO
    TITLE "0:"
    INDEX 01 01:29:27
  TRACK 70 AUDIO
    TITLE "3:cjc115_5044"
    INDEX 01 01:29:37
  TRACK 71 AUDIO
    TITLE "0:"
    INDEX 01 01:30:56
  TRACK 72 AUDIO
    TITLE "4:cjc115_5045"
    INDEX 01 01:30:62
  TRACK 73 AUDIO
    TITLE "0:"
    INDEX 01 01:33:58
